<?xml version="1.0" standalone="no"?>
<!DOCTYPE svg PUBLIC "-//W3C//DTD SVG 20010904//EN"
 "http://www.w3.org/TR/2001/REC-SVG-20010904/DTD/svg10.dtd">
<svg version="1.0" xmlns="http://www.w3.org/2000/svg"
 width="400.000000pt" height="400.000000pt" viewBox="0 0 400.000000 400.000000"
 preserveAspectRatio="xMidYMid meet">
<metadata>
Created by potrace 1.11, written by Peter Selinger 2001-2013
</metadata>
<g transform="translate(0.000000,400.000000) scale(0.100000,-0.100000)"
fill="#000000" stroke="none">
<path d="M525 3984 c-75 -16 -211 -78 -260 -119 -185 -154 -270 -336 -260
-560 4 -117 27 -198 84 -301 173 -309 576 -425 894 -257 107 57 222 175 275
284 217 441 -77 945 -563 964 -65 2 -125 -2 -170 -11z"/>
<path d="M3190 3993 c-186 -31 -358 -138 -467 -291 -44 -61 -97 -172 -107
-222 -2 -14 -8 -43 -13 -65 -16 -68 -7 -222 17 -305 31 -107 36 -170 14 -211
-18 -35 -761 -784 -826 -833 -49 -37 -150 -68 -213 -65 -27 1 -86 15 -130 31
-76 27 -170 54 -225 65 -52 10 -297 12 -345 2 -27 -5 -61 -11 -75 -14 -14 -2
-54 -14 -90 -26 -372 -121 -645 -436 -715 -825 -14 -77 -14 -290 0 -359 52
-260 182 -481 380 -641 180 -147 390 -223 630 -229 193 -5 336 26 499 107 111
55 186 108 269 191 215 213 319 467 312 766 -4 181 -8 206 -70 382 -28 80 -33
108 -31 165 3 74 22 137 58 187 39 55 801 813 836 831 43 22 95 23 157 1 129
-45 289 -53 417 -20 237 61 431 250 501 488 31 108 29 294 -5 399 -79 239
-263 413 -508 480 -38 10 -229 18 -270 11z m-1928 -2266 c115 -37 203 -91 289
-176 131 -131 198 -284 204 -466 13 -346 -200 -626 -543 -715 -24 -6 -83 -13
-132 -15 -270 -10 -526 139 -648 380 -181 357 -37 783 323 955 69 33 106 44
210 64 60 11 224 -4 297 -27z"/>
<path d="M964 1395 c-109 -33 -196 -112 -235 -213 -29 -77 -29 -176 1 -256 31
-80 116 -165 196 -196 85 -32 190 -31 265 3 263 117 291 469 49 622 -76 48
-193 64 -276 40z"/>
<path d="M3275 1328 c-168 -16 -293 -76 -416 -199 -186 -187 -240 -458 -143
-708 73 -187 234 -334 434 -396 66 -20 224 -28 300 -13 220 40 404 186 494
391 86 195 66 440 -51 624 -130 204 -375 324 -618 301z"/>
</g>
</svg>
