<svg class="bob" font-family="arial" font-size="14" height="320" width="448" xmlns="http://www.w3.org/2000/svg">
<defs>
<marker id="triangle" markerHeight="8" markerWidth="8" orient="auto" refX="4" refY="2" viewBox="0 0 8 4">
<polygon class="fg_fill" points="0,0 0,4 8,2 0,0"/>
</marker>
<marker id="clear_triangle" markerHeight="10" markerWidth="10" orient="auto" refX="1" refY="7" viewBox="0 0 20 14">
<polygon class="bg_fill" points="2,2 2,12 18,7 2,2"/>
</marker>
<marker id="circle" markerHeight="5" markerWidth="5" orient="auto" refX="10" refY="10" viewBox="0 0 20 20">
<circle class="fg_fill" cx="10" cy="10" r="8"/>
</marker>
<marker id="square" markerHeight="5" markerWidth="5" orient="auto" refX="10" refY="10" viewBox="0 0 20 20">
<rect class="fg_fill" height="20" width="20" x="0" y="0"/>
</marker>
<marker id="open_circle" markerHeight="10" markerWidth="10" orient="auto" refX="10" refY="10" viewBox="0 0 20 20">
<circle class="bg_fill" cx="10" cy="10" r="4"/>
</marker>
<marker id="big_open_circle" markerHeight="20" markerWidth="20" orient="auto" refX="20" refY="20" viewBox="0 0 40 40">
<circle class="bg_fill" cx="20" cy="20" r="6"/>
</marker>
</defs>
<style type="text/css">

rect.backdrop {
    fill: white;
}
text{
    fill: black;
}

circle {
    fill: none;
    stroke: black;
    stroke-width: 2;
}

line {
    stroke: black;
    stroke-width: 2;
    stroke-opacity: 1;
    fill-opacity: 1;
    stroke-linecap: round;
    stroke-linejoin: miter;
}

path {
    fill: none;
    stroke: black;
    stroke-width: 2;
    stroke-opacity: 1;
    fill-opacity: 1;
    stroke-linecap: round;
    stroke-linejoin: miter;
}

line.dashed {
    stroke-dasharray: 5;
}

.fg_fill {
    fill: black;
}


.bg_fill {
    fill: white;
    stroke: black;
    stroke-width: 2;
}

tspan.head{
    fill: none;
    stroke: none;
}
    
</style>
<rect class="backdrop" height="320" width="448" x="0" y="0"/>
<g>
<line x1="20" x2="20" y1="76" y2="132"/>
<path d="M 20 132 A 4 4 0 0 0 24 136"/>
<path d="M 24 72 A 4 4 0 0 0 20 76"/>
</g>
<g>
<line x1="20" x2="20" y1="220" y2="276"/>
<path d="M 20 276 A 4 4 0 0 0 24 280"/>
<path d="M 24 216 A 4 4 0 0 0 20 220"/>
</g>
<g>
<line x1="24" x2="104" y1="72" y2="72"/>
<path d="M 108 76 A 4 4 0 0 0 104 72"/>
</g>
<g>
<line x1="24" x2="104" y1="136" y2="136"/>
<path d="M 104 136 A 4 4 0 0 0 108 132"/>
</g>
<g>
<line x1="24" x2="104" y1="216" y2="216"/>
<path d="M 108 220 A 4 4 0 0 0 104 216"/>
</g>
<g>
<line x1="24" x2="104" y1="280" y2="280"/>
<path d="M 104 280 A 4 4 0 0 0 108 276"/>
</g>
<g>
<line x1="108" x2="108" y1="76" y2="104"/>
<line x1="108" x2="108" y1="104" y2="132"/>
<line marker-end="url(#triangle)" x1="108" x2="164" y1="104" y2="104"/>
</g>
<g>
<line x1="108" x2="108" y1="220" y2="248"/>
<line x1="108" x2="108" y1="248" y2="276"/>
<line marker-end="url(#triangle)" x1="108" x2="164" y1="248" y2="248"/>
</g>
<g>
<line x1="140" x2="140" y1="28" y2="96"/>
<path d="M 144 24 A 4 4 0 0 0 140 28"/>
</g>
<g>
<line x1="140" x2="140" y1="112" y2="240"/>
</g>
<g>
<line x1="140" x2="140" y1="256" y2="308"/>
<path d="M 140 308 A 4 4 0 0 0 144 312"/>
</g>
<g>
<line x1="144" x2="440" y1="24" y2="24"/>
<path d="M 444 28 A 4 4 0 0 0 440 24"/>
</g>
<g>
<line x1="144" x2="440" y1="312" y2="312"/>
<path d="M 440 312 A 4 4 0 0 0 444 308"/>
</g>
<g>
<line x1="172" x2="172" y1="76" y2="132"/>
<path d="M 172 132 A 4 4 0 0 0 176 136"/>
<path d="M 176 72 A 4 4 0 0 0 172 76"/>
</g>
<g>
<line x1="172" x2="172" y1="220" y2="276"/>
<path d="M 172 276 A 4 4 0 0 0 176 280"/>
<path d="M 176 216 A 4 4 0 0 0 172 220"/>
</g>
<g>
<line x1="176" x2="272" y1="72" y2="72"/>
<path d="M 276 76 A 4 4 0 0 0 272 72"/>
</g>
<g>
<line x1="176" x2="272" y1="136" y2="136"/>
<path d="M 272 136 A 4 4 0 0 0 276 132"/>
</g>
<g>
<line x1="176" x2="272" y1="216" y2="216"/>
<path d="M 276 220 A 4 4 0 0 0 272 216"/>
</g>
<g>
<line x1="176" x2="272" y1="280" y2="280"/>
<path d="M 272 280 A 4 4 0 0 0 276 276"/>
</g>
<g>
<line marker-end="url(#triangle)" x1="228" x2="228" y1="172" y2="204"/>
<path d="M 232 168 A 4 4 0 0 0 228 172"/>
</g>
<g>
<line x1="232" x2="360" y1="168" y2="168"/>
<path d="M 360 168 A 4 4 0 0 0 364 164"/>
</g>
<g>
<line x1="276" x2="276" y1="76" y2="104"/>
<line x1="276" x2="276" y1="104" y2="132"/>
<line marker-end="url(#triangle)" x1="276" x2="300" y1="104" y2="104"/>
</g>
<g>
<line x1="276" x2="276" y1="220" y2="248"/>
<line x1="276" x2="276" y1="248" y2="276"/>
<line marker-end="url(#triangle)" x1="276" x2="300" y1="248" y2="248"/>
</g>
<g>
<line x1="308" x2="308" y1="76" y2="132"/>
<path d="M 308 132 A 4 4 0 0 0 312 136"/>
<path d="M 312 72 A 4 4 0 0 0 308 76"/>
</g>
<g>
<line x1="308" x2="308" y1="220" y2="276"/>
<path d="M 308 276 A 4 4 0 0 0 312 280"/>
<path d="M 312 216 A 4 4 0 0 0 308 220"/>
</g>
<g>
<line x1="312" x2="408" y1="72" y2="72"/>
<path d="M 412 76 A 4 4 0 0 0 408 72"/>
</g>
<g>
<line x1="312" x2="408" y1="136" y2="136"/>
<path d="M 408 136 A 4 4 0 0 0 412 132"/>
</g>
<g>
<line x1="312" x2="416" y1="216" y2="216"/>
<path d="M 420 220 A 4 4 0 0 0 416 216"/>
</g>
<g>
<line x1="312" x2="416" y1="280" y2="280"/>
<path d="M 416 280 A 4 4 0 0 0 420 276"/>
</g>
<g>
<line x1="364" x2="364" y1="144" y2="164"/>
</g>
<g>
<line x1="412" x2="412" y1="76" y2="132"/>
</g>
<g>
<line x1="420" x2="420" y1="220" y2="276"/>
</g>
<g>
<line x1="444" x2="444" y1="28" y2="308"/>
</g>
<g>
<text x="33" y="92">
Program
</text>
</g>
<g>
<text x="33" y="108">
Author
</text>
</g>
<g>
<text x="41" y="252">
Client
</text>
</g>
<g>
<text x="153" y="44">
Solana
</text>
</g>
<g>
<text x="185" y="92">
BPF
</text>
</g>
<g>
<text x="185" y="108">
Bytecode
</text>
</g>
<g>
<text x="185" y="124">
Verifier
</text>
</g>
<g>
<text x="193" y="236">
BPF
</text>
</g>
<g>
<text x="193" y="252">
Loader
</text>
</g>
<g>
<text x="209" y="44">
Runtime
</text>
</g>
<g>
<text x="249" y="188">
LoadAccounts
</text>
</g>
<g>
<text x="321" y="92">
Executable
</text>
</g>
<g>
<text x="321" y="108">
Account
</text>
</g>
<g>
<text x="321" y="236">
BPF
</text>
</g>
<g>
<text x="321" y="252">
Interpreter
</text>
</g>
</svg>